<?xml version="1.0" encoding="utf-8"?>
<!-- Generator: Adobe Illustrator 21.0.2, SVG Export Plug-In . SVG Version: 6.00 Build 0)  -->
<svg version="1.1" id="Layer_1" xmlns="http://www.w3.org/2000/svg" xmlns:xlink="http://www.w3.org/1999/xlink" x="0px" y="0px"
	 viewBox="0 0 800 460" style="enable-background:new 0 0 800 460;" xml:space="preserve">
<style type="text/css">
	.st0{fill:#20293E;}
	.st1{fill:#FFFFFF;}
	.st2{fill-rule:evenodd;clip-rule:evenodd;}
	.st3{font-family:'HelveticaNeue';}
	.st4{font-size:12px;}
	.st5{fill:#DDB45E;}
</style>
<rect class="st0" width="800" height="460"/>
<rect x="120" y="91" class="st1" width="198" height="252"/>
<rect x="124" y="95" class="st0" width="190" height="179"/>
<g>
	<path class="st2" d="M136.8,292.8v16.8h4v-5.8h3.3c2,0,6.1-0.4,6.1-5.6c0-4.2-2.7-5.4-6-5.4H136.8L136.8,292.8z M140.9,296h2.7
		c0.8,0,2.4-0.1,2.4,2.2c0,1.6-0.7,2.3-2.4,2.3h-2.7V296L140.9,296z"/>
	<path class="st2" d="M154.6,292.8l-5.8,16.8h4.2l1-3.1h5.3l1,3.1h4.2l-5.8-16.8H154.6L154.6,292.8z M154.8,303.6l1.8-6.3l1.8,6.3
		H154.8L154.8,303.6z"/>
	<polygon class="st2" points="171.1,299.5 176.7,309.6 180.8,309.6 180.8,292.8 176.7,292.8 176.7,302.7 176.5,302.7 170.9,292.8 
		166.8,292.8 166.8,309.6 170.9,309.6 170.9,299.5 171.1,299.5 	"/>
	<polygon class="st2" points="187.3,296 187.3,309.6 191.3,309.6 191.3,296 196,296 196,292.8 182.6,292.8 182.6,296 187.3,296 	"/>
	<path class="st2" d="M204.4,310.1c6.6,0,8-5,8-8.9s-1.4-8.9-8-8.9c-7.3,0-8,6.4-8,8.9C196.4,303.7,197.1,310.1,204.4,310.1
		L204.4,310.1z M204.4,306.8c-1.6,0-3.7-0.6-3.7-5.6c0-5.1,2.1-5.6,3.7-5.6c1.5,0,3.7,0.6,3.7,5.6
		C208.1,306.2,206.1,306.8,204.4,306.8L204.4,306.8z"/>
	<polygon class="st2" points="219.3,299.5 224.9,309.6 229,309.6 229,292.8 224.9,292.8 224.9,302.7 224.7,302.7 219.1,292.8 
		215,292.8 215,309.6 219.1,309.6 219.1,299.5 219.3,299.5 	"/>
	<polygon class="st2" points="236.1,299.4 236.1,296 242.6,296 242.6,292.8 232.1,292.8 232.1,309.6 242.8,309.6 242.8,306.3 
		236.1,306.3 236.1,302.5 242,302.5 242,299.4 236.1,299.4 	"/>
	<path class="st2" d="M244.1,294c0,0.8,0.7,1.5,1.5,1.5c0.8,0,1.5-0.7,1.5-1.5c0-0.8-0.6-1.5-1.5-1.5
		C244.7,292.5,244.1,293.2,244.1,294L244.1,294z M244.5,294c0-0.7,0.5-1.2,1.1-1.2c0.6,0,1.1,0.5,1.1,1.2c0,0.6-0.5,1.2-1.1,1.2
		C244.9,295.1,244.5,294.6,244.5,294L244.5,294z M245,294.7h0.3v-0.6h0.1c0.5,0,0.2,0.3,0.4,0.6h0.4c-0.1-0.1-0.1-0.1-0.1-0.3
		c0-0.1,0-0.3-0.2-0.4v0c0.1,0,0.2-0.1,0.2-0.3c0-0.2-0.1-0.4-0.5-0.4H245V294.7L245,294.7z M245.4,293.5h0.1c0.2,0,0.3,0,0.3,0.2
		c0,0.2-0.2,0.2-0.2,0.2h-0.2V293.5L245.4,293.5z"/>
</g>
<text transform="matrix(1 0 0 1 137.9482 323.4805)" class="st3 st4">P 108-16 C</text>
<rect x="481" y="91" class="st1" width="198" height="252"/>
<rect x="485" y="95" class="st5" width="190" height="179"/>
<g>
	<path class="st2" d="M497.8,292.8v16.8h4v-5.8h3.3c2,0,6.1-0.4,6.1-5.6c0-4.2-2.7-5.4-6-5.4H497.8L497.8,292.8z M501.9,296h2.7
		c0.8,0,2.4-0.1,2.4,2.2c0,1.6-0.7,2.3-2.4,2.3h-2.7V296L501.9,296z"/>
	<path class="st2" d="M515.6,292.8l-5.8,16.8h4.2l1-3.1h5.3l1,3.1h4.2l-5.8-16.8H515.6L515.6,292.8z M515.8,303.6l1.8-6.3l1.8,6.3
		H515.8L515.8,303.6z"/>
	<polygon class="st2" points="532.1,299.5 537.7,309.6 541.8,309.6 541.8,292.8 537.7,292.8 537.7,302.7 537.5,302.7 531.9,292.8 
		527.8,292.8 527.8,309.6 531.9,309.6 531.9,299.5 532.1,299.5 	"/>
	<polygon class="st2" points="548.3,296 548.3,309.6 552.3,309.6 552.3,296 557,296 557,292.8 543.6,292.8 543.6,296 548.3,296 	"/>
	<path class="st2" d="M565.4,310.1c6.6,0,8-5,8-8.9s-1.4-8.9-8-8.9c-7.3,0-8,6.4-8,8.9C557.4,303.7,558.1,310.1,565.4,310.1
		L565.4,310.1z M565.4,306.8c-1.6,0-3.7-0.6-3.7-5.6c0-5.1,2.1-5.6,3.7-5.6c1.5,0,3.7,0.6,3.7,5.6
		C569.1,306.2,567.1,306.8,565.4,306.8L565.4,306.8z"/>
	<polygon class="st2" points="580.3,299.5 585.9,309.6 590,309.6 590,292.8 585.9,292.8 585.9,302.7 585.7,302.7 580.1,292.8 
		576,292.8 576,309.6 580.1,309.6 580.1,299.5 580.3,299.5 	"/>
	<polygon class="st2" points="597.1,299.4 597.1,296 603.6,296 603.6,292.8 593.1,292.8 593.1,309.6 603.8,309.6 603.8,306.3 
		597.1,306.3 597.1,302.5 603,302.5 603,299.4 597.1,299.4 	"/>
	<path class="st2" d="M605.1,294c0,0.8,0.7,1.5,1.5,1.5c0.8,0,1.5-0.7,1.5-1.5c0-0.8-0.6-1.5-1.5-1.5
		C605.7,292.5,605.1,293.2,605.1,294L605.1,294z M605.5,294c0-0.7,0.5-1.2,1.1-1.2c0.6,0,1.1,0.5,1.1,1.2c0,0.6-0.5,1.2-1.1,1.2
		C605.9,295.1,605.5,294.6,605.5,294L605.5,294z M606,294.7h0.3v-0.6h0.1c0.5,0,0.2,0.3,0.4,0.6h0.4c-0.1-0.1-0.1-0.1-0.1-0.3
		c0-0.1,0-0.3-0.2-0.4v0c0.1,0,0.2-0.1,0.2-0.3c0-0.2-0.1-0.4-0.5-0.4H606V294.7L606,294.7z M606.4,293.5h0.1c0.2,0,0.3,0,0.3,0.2
		c0,0.2-0.2,0.2-0.2,0.2h-0.2V293.5L606.4,293.5z"/>
</g>
<text transform="matrix(1 0 0 1 498.9482 323.4805)" class="st3 st4">P 4-12 U</text>
</svg>
