<?xml version="1.0" encoding="utf-8"?>
<!-- Generator: Adobe Illustrator 21.0.2, SVG Export Plug-In . SVG Version: 6.00 Build 0)  -->
<svg version="1.1" id="Layer_1" xmlns="http://www.w3.org/2000/svg" xmlns:xlink="http://www.w3.org/1999/xlink" x="0px" y="0px"
	 viewBox="0 0 800 800" style="enable-background:new 0 0 800 800;" xml:space="preserve">
<style type="text/css">
	.st0{fill:#20293E;}
	.st1{opacity:0.7;fill:url(#SVGID_1_);}
	.st2{opacity:0.7;fill:url(#SVGID_2_);}
	.st3{fill:url(#SVGID_3_);}
	.st4{fill:url(#SVGID_4_);}
	.st5{opacity:0.5;}
	.st6{fill:#FFFFFF;}
	.st7{opacity:0.7;}
</style>
<rect y="0" class="st0" width="800" height="800"/>
<g>
	<linearGradient id="SVGID_1_" gradientUnits="userSpaceOnUse" x1="116.3077" y1="428.5441" x2="203.1415" y2="428.5441">
		<stop  offset="0" style="stop-color:#DDB45E"/>
		<stop  offset="1" style="stop-color:#E0C080"/>
	</linearGradient>
	<polygon class="st1" points="116.3,414.1 174.2,472 203.1,472 116.3,385.1 	"/>
	<linearGradient id="SVGID_2_" gradientUnits="userSpaceOnUse" x1="145.2519" y1="421.3081" x2="261.0298" y2="421.3081">
		<stop  offset="0" style="stop-color:#DDB45E"/>
		<stop  offset="1" style="stop-color:#E0C080"/>
	</linearGradient>
	<polygon class="st2" points="159.7,370.7 145.3,385.1 232.1,472 261,472 	"/>
	<linearGradient id="SVGID_3_" gradientUnits="userSpaceOnUse" x1="116.3077" y1="370.6552" x2="203.1401" y2="370.6552">
		<stop  offset="0" style="stop-color:#DDB45E"/>
		<stop  offset="1" style="stop-color:#E0C080"/>
	</linearGradient>
	<polygon class="st3" points="116.3,385.1 116.3,414.1 203.1,327.2 174.2,327.2 	"/>
	<linearGradient id="SVGID_4_" gradientUnits="userSpaceOnUse" x1="130.7796" y1="385.1273" x2="261.0284" y2="385.1273">
		<stop  offset="0" style="stop-color:#DDB45E"/>
		<stop  offset="1" style="stop-color:#E0C080"/>
	</linearGradient>
	<polygon class="st4" points="145.3,443 261,327.2 232.1,327.2 130.8,428.5 	"/>
</g>
<rect x="143.5" y="418.3" transform="matrix(0.7071 -0.7071 0.7071 0.7071 -252.0054 248.6931)" class="st5" width="61.4" height="20.5"/>
<g>
	<path class="st6" d="M296,433.1v-60.5h9.3v33.5l37.9-33.5h10.1l-29.5,26.7l31.2,33.9h-10.2l-26.7-29.4l-12.7,10.9v18.5H296z"/>
	<path class="st6" d="M396.9,372.5h7.9l30.1,60.6h-9.9l-8.7-17.8h-30.9l-8.6,17.8h-9.9L396.9,372.5z M414.1,409.4l-13.3-28l-13.7,28
		H414.1z"/>
	<path class="st6" d="M455.7,433.1v-60.6h31.5c3.2,0,6.2,0.6,9,1.7c2.7,1.1,5.1,2.6,7,4.4c2,1.8,3.5,3.9,4.6,6.2
		c1.1,2.3,1.7,4.7,1.7,7c0,2.1-0.4,4.1-1.1,6.1c-0.7,2-1.8,3.7-3.1,5.3c-1.3,1.6-3,3-4.9,4.1c-1.9,1.1-4,2-6.4,2.5l17.8,23.2h-10.6
		l-16.8-21.8H465v21.8H455.7z M465,404.5h22.3c1.9,0,3.7-0.3,5.2-1c1.6-0.7,2.9-1.6,4-2.8c1.1-1.2,2-2.5,2.6-4.1
		c0.6-1.5,0.9-3.1,0.9-4.8c0-1.7-0.4-3.3-1.1-4.8c-0.7-1.5-1.7-2.8-2.9-4c-1.2-1.2-2.6-2.1-4.2-2.7c-1.6-0.7-3.3-1-5.1-1H465V404.5z
		"/>
	<path class="st6" d="M534.7,433.1v-60.6h9.3v60.6H534.7z"/>
	<path class="st6" d="M629.1,417.5c0,2.3-0.6,4.5-1.7,6.4c-1.1,1.9-2.7,3.6-4.7,5s-4.2,2.4-6.8,3.2c-2.6,0.7-5.4,1.1-8.3,1.1h-34.9
		v-60.6h36.6c2.6,0,4.9,0.5,6.9,1.4c2.1,0.9,3.8,2.1,5.3,3.5c1.5,1.5,2.6,3.1,3.4,5c0.8,1.8,1.2,3.7,1.2,5.6c0,3-0.9,5.8-2.7,8.4
		c-1.8,2.6-4.4,4.5-7.8,5.7c4.2,1,7.5,2.9,10,5.7C627.9,410.5,629.1,413.8,629.1,417.5z M582,379.2v20.2h23.4c1.7,0,3.2-0.3,4.6-0.8
		c1.4-0.5,2.6-1.3,3.6-2.2c1-0.9,1.8-2,2.4-3.2c0.6-1.2,0.9-2.5,0.9-3.9c0-1.4-0.3-2.8-0.8-4c-0.6-1.3-1.3-2.3-2.2-3.2
		c-0.9-0.9-2.1-1.6-3.4-2.1c-1.3-0.5-2.8-0.8-4.3-0.8H582z M619.7,416.1c0-1.4-0.3-2.7-0.9-4c-0.6-1.3-1.4-2.4-2.4-3.4
		c-1-1-2.2-1.7-3.6-2.3c-1.4-0.6-2.9-0.9-4.6-0.9H582v20.8h25.6c1.7,0,3.3-0.3,4.8-0.9c1.5-0.6,2.7-1.3,3.8-2.3c1.1-0.9,2-2,2.6-3.3
		C619.4,418.8,619.7,417.5,619.7,416.1z"/>
	<path class="st6" d="M653.2,433.1v-60.6h9.3v60.6H653.2z"/>
</g>
<g class="st7">
	<path class="st6" d="M684.7,373.5H682v6.9h-0.4v-6.9H679v-0.3h5.8V373.5z"/>
	<path class="st6" d="M693.6,380.4v-6.5l-3,5.1h-0.2l-3-5.1v6.5H687v-7.2h0.3l3.2,5.4l3.2-5.4h0.3v7.2H693.6z"/>
</g>
</svg>
