<?xml version="1.0" encoding="utf-8"?>
<!-- Generator: Adobe Illustrator 21.0.2, SVG Export Plug-In . SVG Version: 6.00 Build 0)  -->
<svg version="1.1" id="Layer_1" xmlns="http://www.w3.org/2000/svg" xmlns:xlink="http://www.w3.org/1999/xlink" x="0px" y="0px"
	 viewBox="0 0 448 253" style="enable-background:new 0 0 448 253;" xml:space="preserve">
<style type="text/css">
	.st0{fill:#FFFFFF;}
</style>
<g>
	<polygon class="st0" points="-0.5,4.6 67.2,4.1 211.3,193.4 211,252.3 203.7,252.3 32.1,27.4 32.1,9.8 -0.5,9.8 	"/>
	<path class="st0" d="M73.4,247c0,0-32.7,1.4-32.7-28.3h-8.7c0,0,0,21-32.1,28.3v5.2h73.4V247z"/>
	<path class="st0" d="M170,9.3c0,0,32.7-1.4,32.7,28.3h8.7c0,0,0-21,32.1-28.3V4.2H170V9.3z"/>
	<g>
		<path class="st0" d="M355.8,6.9c6.2,1.7,12.1,4.1,17.8,7.5c17.9,10.8,28.5,26.8,33.8,46.7c1.1,4.3,1.8,8.7,2.7,13
			c1.1,0,2.2,0,3.2,0c0-23.4,0-46.7,0-70.1c-1.7,0-3.1-0.1-4.6,0c-0.4,0-1.1,0.5-1.2,0.8c-2.2,6.6-7.6,8.5-13.5,8.2
			c-4.7-0.3-9-1.9-13.2-4c-8-4-16.3-7.2-25-9V6.9z"/>
		<path class="st0" d="M355.8,146.7v5.6c13.6,0,27.1,0,40.7,0c0,0.7,0,1.3,0,1.8c-0.2,12.5-1,25-3.2,37.4
			c-2,11.5-5.1,22.7-10.9,32.9c-6.2,10.8-14.8,18.5-26.6,22.4v5.3c3.2-0.8,6.4-1.7,9.5-2.8c9.6-3.3,18.6-8.1,27.7-12.7
			c4.6-2.3,9.3-4.4,14.2-5.9c5.6-1.8,10,0.2,13.3,5.1c0.8,1.2,1.4,2.4,2.2,3.6c0.3,0.4,0.8,0.9,1.3,0.9c1.6,0.1,3.1,0,4.9,0
			c0-29.5,0-58.7,0-88.2c6.5,0,12.9,0,19.2,0c0-1.9,0-3.7,0-5.4C417.2,146.7,386.5,146.7,355.8,146.7z"/>
		<path class="st0" d="M304.1,242.8c-5.2-2.6-10-6-14.4-10.2c-10.5-9.8-17.2-22-22-35.4c-6.7-18.6-9.2-38-10.2-57.6
			c-0.7-13.6-0.5-27.3,0.7-40.9c1-12.1,2.8-24,6.1-35.7c3.4-12,8.1-23.4,15.7-33.4c6.5-8.7,14.5-15.3,24.2-19.6V2.3
			c-2.4,0.6-4.8,1.3-7.2,2.1c-38.7,12.8-64.4,39-78,77.2c-6.3,17.9-8.3,36.5-7.2,55.5c0.9,16.4,4.4,32.1,10.9,47.2
			c8.7,20,21.7,36.5,39.3,49.3c12.9,9.3,26.9,15.6,42.1,19V242.8z"/>
	</g>
</g>
</svg>
