<?xml version="1.0" standalone="no"?>
<!DOCTYPE svg PUBLIC "-//W3C//DTD SVG 20010904//EN"
 "http://www.w3.org/TR/2001/REC-SVG-20010904/DTD/svg10.dtd">
<svg version="1.0" xmlns="http://www.w3.org/2000/svg"
 width="512.000000pt" height="512.000000pt" viewBox="0 0 512.000000 512.000000"
 preserveAspectRatio="xMidYMid meet">
<metadata>
Created by potrace 1.11, written by Peter Selinger 2001-2013
</metadata>
<g transform="translate(0.000000,512.000000) scale(0.100000,-0.100000)"
fill="#000000" stroke="none">
<path d="M190 5111 c-74 -23 -136 -78 -169 -151 -21 -45 -21 -51 -18 -2410 l2
-2365 22 -40 c25 -47 74 -95 123 -121 34 -18 115 -19 2400 -21 2281 -2 2366
-2 2406 16 55 25 111 76 137 125 l22 41 0 2375 c0 2253 -1 2377 -18 2407 -28
52 -77 102 -121 126 l-41 22 -2360 2 c-1298 1 -2371 -2 -2385 -6z"/>
</g>
</svg>
