<?xml version="1.0" encoding="utf-8"?>
<!-- Generator: Adobe Illustrator 21.0.2, SVG Export Plug-In . SVG Version: 6.00 Build 0)  -->
<svg version="1.1" id="Layer_1" xmlns="http://www.w3.org/2000/svg" xmlns:xlink="http://www.w3.org/1999/xlink" x="0px" y="0px"
	 viewBox="0 0 752 452.4" style="enable-background:new 0 0 752 452.4;" xml:space="preserve">
<style type="text/css">
	.st0{fill:url(#SVGID_1_);}
	.st1{fill:url(#SVGID_2_);}
	.st2{fill:url(#SVGID_3_);}
	.st3{fill:url(#SVGID_4_);}
	.st4{fill:#871657;}
	.st5{fill:url(#SVGID_5_);}
	.st6{fill:url(#SVGID_6_);}
	.st7{fill:url(#SVGID_7_);}
	.st8{fill:#9BCBD3;}
	.st9{fill:url(#SVGID_8_);}
	.st10{fill:url(#SVGID_9_);}
	.st11{fill:#801759;}
	.st12{fill:url(#SVGID_10_);}
	.st13{fill:none;stroke:#E7E7E7;stroke-linecap:square;stroke-linejoin:round;stroke-miterlimit:10;}
	.st14{fill:url(#SVGID_11_);}
	.st15{fill:url(#SVGID_12_);}
	.st16{fill:none;}
	.st17{fill:url(#SVGID_13_);}
	.st18{fill:url(#SVGID_14_);}
	.st19{fill:url(#SVGID_15_);}
	.st20{fill:url(#SVGID_16_);}
	.st21{fill:#562915;}
</style>
<linearGradient id="SVGID_1_" gradientUnits="userSpaceOnUse" x1="1008.6463" y1="-5264.106" x2="1909.04" y2="-4450.3755" gradientTransform="matrix(0.1339 0 0 -0.1339 377.8035 -358.2747)">
	<stop  offset="0" style="stop-color:#5A2154"/>
	<stop  offset="1" style="stop-color:#BD573E"/>
	<stop  offset="1" style="stop-color:#D36339"/>
</linearGradient>
<polygon class="st0" points="660.4,260.9 568.6,357.8 475,321.1 580.1,224.2 "/>
<linearGradient id="SVGID_2_" gradientUnits="userSpaceOnUse" x1="545.4241" y1="-6422.6152" x2="-2307.23" y2="-2468.8728" gradientTransform="matrix(0.1007 -3.019733e-04 -4.015486e-04 -0.1339 468.8202 -358.9316)">
	<stop  offset="0" style="stop-color:#3F1759"/>
	<stop  offset="2.550000e-02" style="stop-color:#451857"/>
	<stop  offset="0.2726" style="stop-color:#7C2348"/>
	<stop  offset="0.5021" style="stop-color:#A82C3D"/>
	<stop  offset="0.707" style="stop-color:#C73334"/>
	<stop  offset="0.8799" style="stop-color:#DA372F"/>
	<stop  offset="1" style="stop-color:#E1382D"/>
</linearGradient>
<polygon class="st1" points="-0.7,0.8 751.3,-1.5 752.6,450.8 0.7,453.1 "/>
<linearGradient id="SVGID_3_" gradientUnits="userSpaceOnUse" x1="1511.124" y1="-3512.958" x2="2446.8413" y2="-3512.958" gradientTransform="matrix(0.1339 0 0 -0.1339 377.8035 -358.2747)">
	<stop  offset="0" style="stop-color:#973667"/>
	<stop  offset="0.2522" style="stop-color:#94587C"/>
	<stop  offset="1" style="stop-color:#8CBAB7"/>
</linearGradient>
<rect x="580.1" y="0" class="st2" width="125.3" height="224.2"/>
<linearGradient id="SVGID_4_" gradientUnits="userSpaceOnUse" x1="1202.6874" y1="-5508.9824" x2="1889.3628" y2="-4888.4009" gradientTransform="matrix(0.1339 0 0 -0.1339 377.8035 -358.2747)">
	<stop  offset="0" style="stop-color:#5A2154"/>
	<stop  offset="1" style="stop-color:#BD573E"/>
	<stop  offset="1" style="stop-color:#D36339"/>
</linearGradient>
<polygon class="st3" points="691.1,357.8 600.3,321.1 475,321.1 568.6,357.8 "/>
<polygon class="st4" points="46.5,347.6 92.2,369.7 92.2,423 46.5,404.2 "/>
<linearGradient id="SVGID_5_" gradientUnits="userSpaceOnUse" x1="546.1151" y1="-4079.1904" x2="1427.4473" y2="-3282.6877" gradientTransform="matrix(0.1339 0 0 -0.1339 377.8035 -358.2747)">
	<stop  offset="0" style="stop-color:#973667"/>
	<stop  offset="0.2522" style="stop-color:#94587C"/>
	<stop  offset="1" style="stop-color:#8CBAB7"/>
</linearGradient>
<polygon class="st5" points="415.5,164.8 491.5,107.1 598,107.1 537.6,164.8 "/>
<linearGradient id="SVGID_6_" gradientUnits="userSpaceOnUse" x1="880.9677" y1="-3406.3" x2="1644.0123" y2="-2716.7009" gradientTransform="matrix(0.1339 0 0 -0.1339 377.8035 -358.2747)">
	<stop  offset="0" style="stop-color:#973667"/>
	<stop  offset="0.2522" style="stop-color:#94587C"/>
	<stop  offset="1" style="stop-color:#8CBAB7"/>
</linearGradient>
<rect x="491.5" y="0" class="st6" width="106.5" height="107.1"/>
<linearGradient id="SVGID_7_" gradientUnits="userSpaceOnUse" x1="2367.3267" y1="-3954.9414" x2="1470.7755" y2="-3058.3921" gradientTransform="matrix(0.1339 0 0 -0.1339 377.8035 -358.2747)">
	<stop  offset="0" style="stop-color:#DA2822"/>
	<stop  offset="0.1516" style="stop-color:#D03334"/>
	<stop  offset="1" style="stop-color:#976F96"/>
</linearGradient>
<polygon class="st7" points="580.1,159 580.1,224.2 691.1,224.2 691.1,0 580.1,0 "/>
<polygon class="st8" points="309.1,369.5 325.6,346.9 343.1,377.9 318.9,388 "/>
<linearGradient id="SVGID_8_" gradientUnits="userSpaceOnUse" x1="-1647.011" y1="-5936.6553" x2="-2175.3342" y2="-5021.5742" gradientTransform="matrix(0.1339 0 0 -0.1339 377.8035 -358.2747)">
	<stop  offset="0" style="stop-color:#801759"/>
	<stop  offset="0.4164" style="stop-color:#AF2A49"/>
	<stop  offset="0.7925" style="stop-color:#D3393E"/>
	<stop  offset="0.9925" style="stop-color:#E13F39"/>
</linearGradient>
<path class="st9" d="M149.4,315.8l-44.9-13.7v150.2h44.9C149.4,452.2,149.4,318.2,149.4,315.8z"/>
<linearGradient id="SVGID_9_" gradientUnits="userSpaceOnUse" x1="-2355.1533" y1="-5013.4209" x2="-2081.7927" y2="-5854.7373" gradientTransform="matrix(0.1339 0 0 -0.1339 377.8035 -358.2747)">
	<stop  offset="0" style="stop-color:#9BA4CE"/>
	<stop  offset="0.4227" style="stop-color:#B26E84"/>
	<stop  offset="0.8149" style="stop-color:#C54146"/>
	<stop  offset="1" style="stop-color:#CD2F2E"/>
</linearGradient>
<polygon class="st10" points="46.5,404.2 46.5,347.6 104.4,302 104.4,452.3 67.6,452.3 67.7,389.6 "/>
<polyline class="st11" points="256.8,323.2 325.6,346.9 309.1,369.5 239.7,346.9 "/>
<linearGradient id="SVGID_10_" gradientUnits="userSpaceOnUse" x1="-392.3139" y1="-5567.6997" x2="-291.1426" y2="-6057.0698" gradientTransform="matrix(0.1339 0 0 -0.1339 377.8035 -358.2747)">
	<stop  offset="0" style="stop-color:#9BA4CE"/>
	<stop  offset="0.4227" style="stop-color:#B26E84"/>
	<stop  offset="0.8149" style="stop-color:#C54146"/>
	<stop  offset="1" style="stop-color:#CD2F2E"/>
</linearGradient>
<polygon class="st12" points="318.9,388 343.1,377.9 343.1,452.3 318.9,452.3 "/>
<path class="st13" d="M239.7,346.9"/>
<linearGradient id="SVGID_11_" gradientUnits="userSpaceOnUse" x1="-1658.9694" y1="-5047.7329" x2="-1464.9989" y2="-6055.0044" gradientTransform="matrix(0.1339 0 0 -0.1339 377.8035 -358.2747)">
	<stop  offset="0" style="stop-color:#9BA4CE"/>
	<stop  offset="0.1948" style="stop-color:#A886A4"/>
	<stop  offset="0.4607" style="stop-color:#B86072"/>
	<stop  offset="0.6933" style="stop-color:#C3464D"/>
	<stop  offset="0.8809" style="stop-color:#CA3536"/>
	<stop  offset="1" style="stop-color:#CD2F2E"/>
</linearGradient>
<rect x="149.4" y="315.7" class="st14" width="38.1" height="136.7"/>
<polygon class="st8" points="149.4,315.7 190,265.8 227.6,265.8 187.5,315.7 "/>
<linearGradient id="SVGID_12_" gradientUnits="userSpaceOnUse" x1="1150.549" y1="-3540.5244" x2="1551.879" y2="-2845.4014" gradientTransform="matrix(0.1339 0 0 -0.1339 377.8035 -358.2747)">
	<stop  offset="0.1031" style="stop-color:#801759"/>
	<stop  offset="0.425" style="stop-color:#A0224A"/>
	<stop  offset="0.9925" style="stop-color:#E1382D"/>
</linearGradient>
<polygon class="st15" points="537.6,164.8 598,107.1 598,0 537.6,0 "/>
<polygon class="st8" points="580.1,224.2 475,321.1 600.3,321.1 691.1,224.2 "/>
<path class="st16" d="M475,321.1"/>
<linearGradient id="SVGID_13_" gradientUnits="userSpaceOnUse" x1="1675.0409" y1="-6045.1191" x2="717.1605" y2="-5087.2388" gradientTransform="matrix(0.1339 0 0 -0.1339 377.8035 -358.2747)">
	<stop  offset="0" style="stop-color:#DA2822"/>
	<stop  offset="0.2294" style="stop-color:#CA3840"/>
	<stop  offset="1" style="stop-color:#976DA2"/>
</linearGradient>
<rect x="475" y="321.1" class="st17" width="125.3" height="131.2"/>
<linearGradient id="SVGID_14_" gradientUnits="userSpaceOnUse" x1="3184.6418" y1="-2901.0347" x2="1438.6772" y2="-5925.1343" gradientTransform="matrix(0.1339 0 0 -0.1339 377.8035 -358.2747)">
	<stop  offset="0" style="stop-color:#801759"/>
	<stop  offset="0.4164" style="stop-color:#AF2744"/>
	<stop  offset="0.7925" style="stop-color:#D33333"/>
	<stop  offset="0.9925" style="stop-color:#E1382D"/>
</linearGradient>
<polygon class="st18" points="691.1,0 752,0 752,279.6 691.1,357.8 691.1,452.3 600.3,452.3 600.3,321.1 691.1,224.2 "/>
<linearGradient id="SVGID_15_" gradientUnits="userSpaceOnUse" x1="1211.896" y1="-2816.4526" x2="268.6066" y2="-3759.739" gradientTransform="matrix(0.1339 0 0 -0.1339 377.8035 -358.2747)">
	<stop  offset="0" style="stop-color:#DA2822"/>
	<stop  offset="0.2294" style="stop-color:#CA3840"/>
	<stop  offset="1" style="stop-color:#976DA2"/>
</linearGradient>
<rect x="415.5" y="0" class="st19" width="122.1" height="164.8"/>
<linearGradient id="SVGID_16_" gradientUnits="userSpaceOnUse" x1="-1068.3669" y1="-6177.1416" x2="-318.7693" y2="-4878.8008" gradientTransform="matrix(0.1339 0 0 -0.1339 377.8035 -358.2747)">
	<stop  offset="0" style="stop-color:#801759"/>
	<stop  offset="0.4164" style="stop-color:#AF2744"/>
	<stop  offset="0.7925" style="stop-color:#D33333"/>
	<stop  offset="0.9925" style="stop-color:#E1382D"/>
</linearGradient>
<polyline class="st20" points="256.8,323.2 239.7,346.9 239.7,452.3 187.5,452.3 187.5,315.7 227.6,265.8 352.9,311.3 379.9,364.6 
	379.9,452.3 343.1,452.4 343.1,377.9 325.6,346.9 256.8,323.2 239.7,346.9 "/>
<path class="st21" d="M282.6,402.9"/>
</svg>
