<?xml version="1.0" encoding="utf-8"?>
<!-- Generator: Adobe Illustrator 21.0.2, SVG Export Plug-In . SVG Version: 6.00 Build 0)  -->
<svg version="1.1" id="Layer_1" xmlns="http://www.w3.org/2000/svg" xmlns:xlink="http://www.w3.org/1999/xlink" x="0px" y="0px"
	 viewBox="0 0 900 900" style="enable-background:new 0 0 900 900;" xml:space="preserve">
<style type="text/css">
	.st0{fill:url(#SVGID_1_);}
	.st1{fill:#871657;}
	.st2{fill:#9BCBD3;}
	.st3{fill:url(#SVGID_2_);}
	.st4{fill:url(#SVGID_3_);}
	.st5{fill:#801759;}
	.st6{fill:url(#SVGID_4_);}
	.st7{fill:url(#SVGID_5_);}
	.st8{fill:url(#SVGID_6_);}
	.st9{fill:#562915;}
</style>
<linearGradient id="SVGID_1_" gradientUnits="userSpaceOnUse" x1="669.4324" y1="830.0681" x2="247.8388" y2="99.8465">
	<stop  offset="0" style="stop-color:#3F1759"/>
	<stop  offset="2.550000e-02" style="stop-color:#451857"/>
	<stop  offset="0.2726" style="stop-color:#7C2348"/>
	<stop  offset="0.5021" style="stop-color:#A82C3D"/>
	<stop  offset="0.707" style="stop-color:#C73334"/>
	<stop  offset="0.8799" style="stop-color:#DA372F"/>
	<stop  offset="1" style="stop-color:#E1382D"/>
</linearGradient>
<rect class="st0" width="900" height="900"/>
<polygon class="st1" points="56.5,653.5 164.2,705.5 164.2,831.1 56.5,786.8 "/>
<polygon class="st2" points="675.1,705.2 714,651.9 755.3,725 698.3,748.7 "/>
<linearGradient id="SVGID_2_" gradientUnits="userSpaceOnUse" x1="-1732.051" y1="-7229.8716" x2="-2976.603" y2="-5074.248" gradientTransform="matrix(0.1339 0 0 -0.1339 549.3806 -104.7874)">
	<stop  offset="0" style="stop-color:#801759"/>
	<stop  offset="0.4164" style="stop-color:#AF2A49"/>
	<stop  offset="0.7925" style="stop-color:#D3393E"/>
	<stop  offset="0.9925" style="stop-color:#E13F39"/>
</linearGradient>
<path class="st3" d="M298.9,578.6L193,546.4v353.9h105.8C298.9,900,298.9,584.2,298.9,578.6z"/>
<linearGradient id="SVGID_3_" gradientUnits="userSpaceOnUse" x1="-3400.196" y1="-5055.0425" x2="-2756.2502" y2="-7036.8999" gradientTransform="matrix(0.1339 0 0 -0.1339 549.3806 -104.7874)">
	<stop  offset="0" style="stop-color:#9BA4CE"/>
	<stop  offset="0.4227" style="stop-color:#B26E84"/>
	<stop  offset="0.8149" style="stop-color:#C54146"/>
	<stop  offset="1" style="stop-color:#CD2F2E"/>
</linearGradient>
<polygon class="st4" points="56.5,786.8 56.5,653.5 193,546.1 193,900.3 106.1,900.3 106.4,752.4 "/>
<polyline class="st5" points="551.9,595.9 714,651.9 675.1,705.2 511.6,651.9 "/>
<linearGradient id="SVGID_4_" gradientUnits="userSpaceOnUse" x1="1223.5928" y1="-6360.7358" x2="1461.9185" y2="-7513.5273" gradientTransform="matrix(0.1339 0 0 -0.1339 549.3806 -104.7874)">
	<stop  offset="0" style="stop-color:#9BA4CE"/>
	<stop  offset="0.4227" style="stop-color:#B26E84"/>
	<stop  offset="0.8149" style="stop-color:#C54146"/>
	<stop  offset="1" style="stop-color:#CD2F2E"/>
</linearGradient>
<polygon class="st6" points="698.3,748.7 755.3,725 755.3,900.3 698.3,900.3 "/>
<linearGradient id="SVGID_5_" gradientUnits="userSpaceOnUse" x1="-1760.2208" y1="-5135.8696" x2="-1303.292" y2="-7508.6621" gradientTransform="matrix(0.1339 0 0 -0.1339 549.3806 -104.7874)">
	<stop  offset="0" style="stop-color:#9BA4CE"/>
	<stop  offset="0.1948" style="stop-color:#A886A4"/>
	<stop  offset="0.4607" style="stop-color:#B86072"/>
	<stop  offset="0.6933" style="stop-color:#C3464D"/>
	<stop  offset="0.8809" style="stop-color:#CA3536"/>
	<stop  offset="1" style="stop-color:#CD2F2E"/>
</linearGradient>
<rect x="298.9" y="578.3" class="st7" width="89.9" height="321.9"/>
<polygon class="st2" points="298.9,578.3 394.6,460.8 483.1,460.8 388.7,578.3 "/>
<linearGradient id="SVGID_6_" gradientUnits="userSpaceOnUse" x1="-368.9605" y1="-7796.3755" x2="1396.8391" y2="-4737.9219" gradientTransform="matrix(0.1339 0 0 -0.1339 549.3806 -104.7874)">
	<stop  offset="0" style="stop-color:#801759"/>
	<stop  offset="0.4164" style="stop-color:#AF2744"/>
	<stop  offset="0.7925" style="stop-color:#D33333"/>
	<stop  offset="0.9925" style="stop-color:#E1382D"/>
</linearGradient>
<polyline class="st8" points="551.9,595.9 511.6,651.9 511.6,900.3 388.7,900.3 388.7,578.3 483.1,460.8 778.3,567.9 842,693.5 
	842,900.3 755.3,900.4 755.3,725 714,651.9 551.9,595.9 511.6,651.9 "/>
<path class="st9" d="M612.7,783.9"/>
</svg>
